<mxfile host="65bd71144e">
    <diagram id="Aq5SklJpldZwCfAiTJRI" name="Page-1">
        <mxGraphModel dx="1424" dy="1008" grid="1" gridSize="10" guides="1" tooltips="1" connect="1" arrows="1" fold="1" page="1" pageScale="1" pageWidth="850" pageHeight="1100" math="0" shadow="0">
            <root>
                <mxCell id="0"/>
                <mxCell id="1" parent="0"/>
                <mxCell id="4" value="Consulter les détails des évenements" style="ellipse;whiteSpace=wrap;html=1;" parent="1" vertex="1">
                    <mxGeometry x="335" y="430" width="140" height="50" as="geometry"/>
                </mxCell>
                <mxCell id="5" value="Gérer les reservations" style="ellipse;whiteSpace=wrap;html=1;" parent="1" vertex="1">
                    <mxGeometry x="350" y="1000" width="140" height="50" as="geometry"/>
                </mxCell>
                <mxCell id="6" value="Filtrer les événements" style="ellipse;whiteSpace=wrap;html=1;" parent="1" vertex="1">
                    <mxGeometry x="325" y="630" width="140" height="50" as="geometry"/>
                </mxCell>
                <mxCell id="7" value="login" style="ellipse;whiteSpace=wrap;html=1;" parent="1" vertex="1">
                    <mxGeometry x="690" y="622" width="140" height="50" as="geometry"/>
                </mxCell>
                <mxCell id="8" value="Utilisateur" style="shape=umlActor;verticalLabelPosition=bottom;verticalAlign=top;html=1;" parent="1" vertex="1">
                    <mxGeometry x="41" y="505" width="30" height="60" as="geometry"/>
                </mxCell>
                <mxCell id="9" value="Rechercher les événements" style="ellipse;whiteSpace=wrap;html=1;" parent="1" vertex="1">
                    <mxGeometry x="335" y="505" width="140" height="40" as="geometry"/>
                </mxCell>
                <mxCell id="10" value="Reserver une place pour l'événement" style="ellipse;whiteSpace=wrap;html=1;" parent="1" vertex="1">
                    <mxGeometry x="325" y="562" width="160" height="60" as="geometry"/>
                </mxCell>
                <mxCell id="14" value="Crééer un nouvel événement" style="ellipse;whiteSpace=wrap;html=1;" parent="1" vertex="1">
                    <mxGeometry x="325" y="704" width="170" height="50" as="geometry"/>
                </mxCell>
                <mxCell id="15" value="Organisateur" style="shape=umlActor;verticalLabelPosition=bottom;verticalAlign=top;html=1;" parent="1" vertex="1">
                    <mxGeometry x="50" y="922" width="30" height="60" as="geometry"/>
                </mxCell>
                <mxCell id="16" value="Crééer un nouvel événement" style="ellipse;whiteSpace=wrap;html=1;" parent="1" vertex="1">
                    <mxGeometry x="340" y="820" width="140" height="70" as="geometry"/>
                </mxCell>
                <mxCell id="17" value="Accès à des statistiques" style="ellipse;whiteSpace=wrap;html=1;" parent="1" vertex="1">
                    <mxGeometry x="345" y="912" width="140" height="70" as="geometry"/>
                </mxCell>
                <mxCell id="18" value="" style="endArrow=none;html=1;exitX=0.5;exitY=0.5;exitDx=0;exitDy=0;exitPerimeter=0;entryX=0.01;entryY=0.388;entryDx=0;entryDy=0;entryPerimeter=0;" parent="1" source="15" target="16" edge="1">
                    <mxGeometry width="50" height="50" relative="1" as="geometry">
                        <mxPoint x="110" y="982" as="sourcePoint"/>
                        <mxPoint x="160" y="932" as="targetPoint"/>
                    </mxGeometry>
                </mxCell>
                <mxCell id="19" value="" style="endArrow=none;html=1;exitX=0.5;exitY=0.5;exitDx=0;exitDy=0;exitPerimeter=0;" parent="1" source="15" target="17" edge="1">
                    <mxGeometry width="50" height="50" relative="1" as="geometry">
                        <mxPoint x="75" y="1162" as="sourcePoint"/>
                        <mxPoint x="376.4000000000001" y="1069.16" as="targetPoint"/>
                    </mxGeometry>
                </mxCell>
                <mxCell id="21" value="" style="endArrow=none;html=1;entryX=0.023;entryY=0.322;entryDx=0;entryDy=0;entryPerimeter=0;" parent="1" target="6" edge="1">
                    <mxGeometry width="50" height="50" relative="1" as="geometry">
                        <mxPoint x="70" y="532" as="sourcePoint"/>
                        <mxPoint x="329.9999999999998" y="631" as="targetPoint"/>
                    </mxGeometry>
                </mxCell>
                <mxCell id="22" value="" style="endArrow=none;html=1;entryX=0;entryY=0.5;entryDx=0;entryDy=0;" parent="1" target="14" edge="1">
                    <mxGeometry width="50" height="50" relative="1" as="geometry">
                        <mxPoint x="70" y="532" as="sourcePoint"/>
                        <mxPoint x="367.30941457255904" y="808.1225232209979" as="targetPoint"/>
                        <Array as="points"/>
                    </mxGeometry>
                </mxCell>
                <mxCell id="24" value="" style="endArrow=none;html=1;entryX=0;entryY=0.5;entryDx=0;entryDy=0;" parent="1" target="10" edge="1">
                    <mxGeometry width="50" height="50" relative="1" as="geometry">
                        <mxPoint x="70" y="530" as="sourcePoint"/>
                        <mxPoint x="360" y="472" as="targetPoint"/>
                    </mxGeometry>
                </mxCell>
                <mxCell id="28" value="" style="endArrow=none;html=1;entryX=0;entryY=0.5;entryDx=0;entryDy=0;" parent="1" target="5" edge="1">
                    <mxGeometry width="50" height="50" relative="1" as="geometry">
                        <mxPoint x="70" y="960" as="sourcePoint"/>
                        <mxPoint x="365.6443755328596" y="186.8350788222208" as="targetPoint"/>
                    </mxGeometry>
                </mxCell>
                <mxCell id="30" value="" style="endArrow=block;dashed=1;endFill=0;endSize=12;html=1;exitX=1;exitY=0.5;exitDx=0;exitDy=0;" parent="1" source="5" edge="1">
                    <mxGeometry width="160" relative="1" as="geometry">
                        <mxPoint x="500" y="181.9999999999999" as="sourcePoint"/>
                        <mxPoint x="710.0000000000005" y="670" as="targetPoint"/>
                        <Array as="points">
                            <mxPoint x="720" y="670"/>
                        </Array>
                    </mxGeometry>
                </mxCell>
                <mxCell id="33" value="" style="endArrow=block;dashed=1;endFill=0;endSize=12;html=1;exitX=1;exitY=0.5;exitDx=0;exitDy=0;" parent="1" source="10" edge="1">
                    <mxGeometry width="160" relative="1" as="geometry">
                        <mxPoint x="505" y="507.6" as="sourcePoint"/>
                        <mxPoint x="725.3300325817104" y="622.0021323020419" as="targetPoint"/>
                        <Array as="points">
                            <mxPoint x="610" y="590"/>
                        </Array>
                    </mxGeometry>
                </mxCell>
                <mxCell id="36" value="" style="endArrow=block;dashed=1;endFill=0;endSize=12;html=1;exitX=1;exitY=0.5;exitDx=0;exitDy=0;entryX=-0.017;entryY=0.309;entryDx=0;entryDy=0;entryPerimeter=0;" parent="1" source="6" target="7" edge="1">
                    <mxGeometry width="160" relative="1" as="geometry">
                        <mxPoint x="469.9999999999998" y="631" as="sourcePoint"/>
                        <mxPoint x="683.9200000000001" y="665.75" as="targetPoint"/>
                    </mxGeometry>
                </mxCell>
                <mxCell id="37" value="" style="endArrow=block;dashed=1;endFill=0;endSize=12;html=1;entryX=0.006;entryY=0.754;entryDx=0;entryDy=0;entryPerimeter=0;exitX=1;exitY=0.5;exitDx=0;exitDy=0;" parent="1" source="14" target="7" edge="1">
                    <mxGeometry width="160" relative="1" as="geometry">
                        <mxPoint x="510" y="625" as="sourcePoint"/>
                        <mxPoint x="700.502525316942" y="674.6776695296635" as="targetPoint"/>
                    </mxGeometry>
                </mxCell>
                <mxCell id="38" value="" style="endArrow=block;dashed=1;endFill=0;endSize=12;html=1;exitX=1;exitY=0.5;exitDx=0;exitDy=0;entryX=0.059;entryY=0.781;entryDx=0;entryDy=0;entryPerimeter=0;" parent="1" source="16" target="7" edge="1">
                    <mxGeometry width="160" relative="1" as="geometry">
                        <mxPoint x="505" y="937" as="sourcePoint"/>
                        <mxPoint x="750.0000000000005" y="682" as="targetPoint"/>
                    </mxGeometry>
                </mxCell>
                <mxCell id="39" value="" style="endArrow=block;dashed=1;endFill=0;endSize=12;html=1;exitX=0.992;exitY=0.353;exitDx=0;exitDy=0;exitPerimeter=0;entryX=0.115;entryY=0.85;entryDx=0;entryDy=0;entryPerimeter=0;" parent="1" source="17" target="7" edge="1">
                    <mxGeometry width="160" relative="1" as="geometry">
                        <mxPoint x="515" y="1077" as="sourcePoint"/>
                        <mxPoint x="779.96" y="672" as="targetPoint"/>
                    </mxGeometry>
                </mxCell>
                <mxCell id="41" value="" style="endArrow=classic;html=1;" parent="1" edge="1">
                    <mxGeometry width="50" height="50" relative="1" as="geometry">
                        <mxPoint x="65" y="900" as="sourcePoint"/>
                        <mxPoint x="65" y="610" as="targetPoint"/>
                    </mxGeometry>
                </mxCell>
                <mxCell id="42" value="Evento" style="shape=umlFrame;whiteSpace=wrap;html=1;width=100;height=30;fontStyle=1" parent="1" vertex="1">
                    <mxGeometry x="130" y="390" width="720" height="1020" as="geometry"/>
                </mxCell>
                <mxCell id="43" value="Admin" style="shape=umlActor;verticalLabelPosition=bottom;verticalAlign=top;html=1;" parent="1" vertex="1">
                    <mxGeometry x="60" y="1192" width="30" height="60" as="geometry"/>
                </mxCell>
                <mxCell id="48" value="Valider les évenemnts créés" style="ellipse;whiteSpace=wrap;html=1;" parent="1" vertex="1">
                    <mxGeometry x="365" y="1230" width="140" height="50" as="geometry"/>
                </mxCell>
                <mxCell id="49" value="Gérer les utilisateurs" style="ellipse;whiteSpace=wrap;html=1;" parent="1" vertex="1">
                    <mxGeometry x="360" y="1110" width="140" height="50" as="geometry"/>
                </mxCell>
                <mxCell id="50" value="Gérer les catégories des évenements" style="ellipse;whiteSpace=wrap;html=1;" parent="1" vertex="1">
                    <mxGeometry x="360" y="1170" width="140" height="50" as="geometry"/>
                </mxCell>
                <mxCell id="51" value="Accès à des statistiques" style="ellipse;whiteSpace=wrap;html=1;" parent="1" vertex="1">
                    <mxGeometry x="360" y="1290" width="140" height="48" as="geometry"/>
                </mxCell>
                <mxCell id="52" value="" style="endArrow=none;html=1;entryX=0;entryY=0.5;entryDx=0;entryDy=0;" parent="1" target="49" edge="1">
                    <mxGeometry width="50" height="50" relative="1" as="geometry">
                        <mxPoint x="90" y="1220" as="sourcePoint"/>
                        <mxPoint x="376.4000000000001" y="1052.0000000000002" as="targetPoint"/>
                    </mxGeometry>
                </mxCell>
                <mxCell id="53" value="" style="endArrow=none;html=1;entryX=0;entryY=0.5;entryDx=0;entryDy=0;" parent="1" target="50" edge="1">
                    <mxGeometry width="50" height="50" relative="1" as="geometry">
                        <mxPoint x="90" y="1220" as="sourcePoint"/>
                        <mxPoint x="370" y="1155" as="targetPoint"/>
                    </mxGeometry>
                </mxCell>
                <mxCell id="54" value="" style="endArrow=none;html=1;entryX=0;entryY=0.5;entryDx=0;entryDy=0;" parent="1" target="48" edge="1">
                    <mxGeometry width="50" height="50" relative="1" as="geometry">
                        <mxPoint x="90" y="1220" as="sourcePoint"/>
                        <mxPoint x="370" y="1225" as="targetPoint"/>
                    </mxGeometry>
                </mxCell>
                <mxCell id="55" value="" style="endArrow=none;html=1;entryX=0;entryY=0.5;entryDx=0;entryDy=0;" parent="1" target="51" edge="1">
                    <mxGeometry width="50" height="50" relative="1" as="geometry">
                        <mxPoint x="90" y="1220" as="sourcePoint"/>
                        <mxPoint x="360" y="1360" as="targetPoint"/>
                    </mxGeometry>
                </mxCell>
                <mxCell id="56" value="" style="endArrow=block;dashed=1;endFill=0;endSize=12;html=1;exitX=1;exitY=0.5;exitDx=0;exitDy=0;" parent="1" source="49" edge="1">
                    <mxGeometry width="160" relative="1" as="geometry">
                        <mxPoint x="500" y="1149.5" as="sourcePoint"/>
                        <mxPoint x="740" y="680" as="targetPoint"/>
                        <Array as="points">
                            <mxPoint x="640" y="890"/>
                        </Array>
                    </mxGeometry>
                </mxCell>
                <mxCell id="57" value="" style="endArrow=block;dashed=1;endFill=0;endSize=12;html=1;exitX=1;exitY=0.5;exitDx=0;exitDy=0;entryX=0.5;entryY=1;entryDx=0;entryDy=0;" parent="1" target="7" edge="1" source="50">
                    <mxGeometry width="160" relative="1" as="geometry">
                        <mxPoint x="495" y="1229.5" as="sourcePoint"/>
                        <mxPoint x="735" y="760" as="targetPoint"/>
                        <Array as="points">
                            <mxPoint x="650" y="985"/>
                            <mxPoint x="720" y="830"/>
                        </Array>
                    </mxGeometry>
                </mxCell>
                <mxCell id="58" value="" style="endArrow=block;dashed=1;endFill=0;endSize=12;html=1;exitX=1;exitY=0.5;exitDx=0;exitDy=0;entryX=0.643;entryY=0.96;entryDx=0;entryDy=0;entryPerimeter=0;" parent="1" target="7" edge="1" source="48">
                    <mxGeometry width="160" relative="1" as="geometry">
                        <mxPoint x="505" y="1287.5" as="sourcePoint"/>
                        <mxPoint x="770" y="730" as="targetPoint"/>
                        <Array as="points">
                            <mxPoint x="660" y="1043"/>
                            <mxPoint x="730" y="888"/>
                        </Array>
                    </mxGeometry>
                </mxCell>
                <mxCell id="59" value="" style="endArrow=block;dashed=1;endFill=0;endSize=12;html=1;exitX=1;exitY=0.5;exitDx=0;exitDy=0;entryX=0.744;entryY=1.025;entryDx=0;entryDy=0;entryPerimeter=0;" parent="1" target="7" edge="1" source="51">
                    <mxGeometry width="160" relative="1" as="geometry">
                        <mxPoint x="505" y="1367.5" as="sourcePoint"/>
                        <mxPoint x="770" y="810" as="targetPoint"/>
                        <Array as="points">
                            <mxPoint x="660" y="1123"/>
                            <mxPoint x="730" y="968"/>
                            <mxPoint x="780" y="820"/>
                        </Array>
                    </mxGeometry>
                </mxCell>
                <mxCell id="62" value="INCLUDE" style="edgeLabel;html=1;align=center;verticalAlign=middle;resizable=0;points=[];rotation=0;" parent="1" vertex="1" connectable="0">
                    <mxGeometry x="621.0007599661488" y="592.0020765228835" as="geometry">
                        <mxPoint x="-14.830127018922191" y="-15.686533479473212" as="offset"/>
                    </mxGeometry>
                </mxCell>
                <mxCell id="63" value="INCLUDE" style="edgeLabel;html=1;align=center;verticalAlign=middle;resizable=0;points=[];rotation=-15;" parent="1" vertex="1" connectable="0">
                    <mxGeometry x="600.0007599661488" y="690.0020765228835" as="geometry">
                        <mxPoint x="-14.830127018922191" y="-15.686533479473212" as="offset"/>
                    </mxGeometry>
                </mxCell>
                <mxCell id="64" value="INCLUDE" style="edgeLabel;html=1;align=center;verticalAlign=middle;resizable=0;points=[];rotation=0;" parent="1" vertex="1" connectable="0">
                    <mxGeometry x="590.0007599661488" y="647.0020765228835" as="geometry">
                        <mxPoint x="-14.830127018922191" y="-15.686533479473212" as="offset"/>
                    </mxGeometry>
                </mxCell>
                <mxCell id="65" value="INCLUDE" style="edgeLabel;html=1;align=center;verticalAlign=middle;resizable=0;points=[];rotation=-25;" parent="1" vertex="1" connectable="0">
                    <mxGeometry x="611.0007599661488" y="740.0020765228835" as="geometry">
                        <mxPoint x="-14.830127018922191" y="-15.686533479473212" as="offset"/>
                    </mxGeometry>
                </mxCell>
                <mxCell id="66" value="INCLUDE" style="edgeLabel;html=1;align=center;verticalAlign=middle;resizable=0;points=[];rotation=-45;" parent="1" vertex="1" connectable="0">
                    <mxGeometry x="630.0007599661488" y="754.0020765228835" as="geometry">
                        <mxPoint x="-14.830127018922191" y="-15.686533479473212" as="offset"/>
                    </mxGeometry>
                </mxCell>
                <mxCell id="67" value="INCLUDE" style="edgeLabel;html=1;align=center;verticalAlign=middle;resizable=0;points=[];rotation=-50;" parent="1" vertex="1" connectable="0">
                    <mxGeometry x="640.0007599661488" y="780.0020765228835" as="geometry">
                        <mxPoint x="-14.830127018922191" y="-15.686533479473212" as="offset"/>
                    </mxGeometry>
                </mxCell>
                <mxCell id="68" value="INCLUDE" style="edgeLabel;html=1;align=center;verticalAlign=middle;resizable=0;points=[];rotation=-60;" parent="1" vertex="1" connectable="0">
                    <mxGeometry x="690.0007599661488" y="820.0020765228835" as="geometry">
                        <mxPoint x="-14.830127018922191" y="-15.686533479473212" as="offset"/>
                    </mxGeometry>
                </mxCell>
                <mxCell id="69" value="INCLUDE" style="edgeLabel;html=1;align=center;verticalAlign=middle;resizable=0;points=[];rotation=-65;" parent="1" vertex="1" connectable="0">
                    <mxGeometry x="730.0007599661488" y="840.0020765228835" as="geometry">
                        <mxPoint x="-14.830127018922191" y="-15.686533479473212" as="offset"/>
                    </mxGeometry>
                </mxCell>
                <mxCell id="70" value="INCLUDE" style="edgeLabel;html=1;align=center;verticalAlign=middle;resizable=0;points=[];rotation=-80;" parent="1" vertex="1" connectable="0">
                    <mxGeometry x="760.0007599661488" y="820.0020765228835" as="geometry">
                        <mxPoint x="-14.830127018922191" y="-15.686533479473212" as="offset"/>
                    </mxGeometry>
                </mxCell>
                <mxCell id="71" value="INCLUDE" style="edgeLabel;html=1;align=center;verticalAlign=middle;resizable=0;points=[];rotation=-80;" parent="1" vertex="1" connectable="0">
                    <mxGeometry x="790.0007599661488" y="830.0020765228835" as="geometry">
                        <mxPoint x="-14.830127018922191" y="-15.686533479473212" as="offset"/>
                    </mxGeometry>
                </mxCell>
                <mxCell id="81" value="" style="endArrow=none;html=1;entryX=0;entryY=0.5;entryDx=0;entryDy=0;" parent="1" target="4" edge="1">
                    <mxGeometry width="50" height="50" relative="1" as="geometry">
                        <mxPoint x="70" y="530" as="sourcePoint"/>
                        <mxPoint x="360" y="117" as="targetPoint"/>
                    </mxGeometry>
                </mxCell>
                <mxCell id="83" value="" style="endArrow=none;html=1;entryX=0;entryY=0.5;entryDx=0;entryDy=0;" parent="1" target="9" edge="1">
                    <mxGeometry width="50" height="50" relative="1" as="geometry">
                        <mxPoint x="70" y="530" as="sourcePoint"/>
                        <mxPoint x="370" y="260" as="targetPoint"/>
                    </mxGeometry>
                </mxCell>
                <mxCell id="87" value="" style="endArrow=block;dashed=1;endFill=0;endSize=12;html=1;exitX=1;exitY=0.5;exitDx=0;exitDy=0;entryX=0.548;entryY=0.007;entryDx=0;entryDy=0;entryPerimeter=0;" parent="1" source="9" target="7" edge="1">
                    <mxGeometry width="160" relative="1" as="geometry">
                        <mxPoint x="495.0000000000002" y="602" as="sourcePoint"/>
                        <mxPoint x="735.3300325817104" y="632.0021323020419" as="targetPoint"/>
                        <Array as="points">
                            <mxPoint x="650" y="560"/>
                        </Array>
                    </mxGeometry>
                </mxCell>
                <mxCell id="88" value="&lt;span style=&quot;color: rgb(240, 240, 240); font-family: Helvetica; font-size: 11px; font-style: normal; font-variant-ligatures: normal; font-variant-caps: normal; font-weight: 400; letter-spacing: normal; orphans: 2; text-align: center; text-indent: 0px; text-transform: none; widows: 2; word-spacing: 0px; -webkit-text-stroke-width: 0px; background-color: rgb(24, 20, 29); text-decoration-thickness: initial; text-decoration-style: initial; text-decoration-color: initial; float: none; display: inline !important;&quot;&gt;INCLUDE&lt;/span&gt;" style="text;whiteSpace=wrap;html=1;" parent="1" vertex="1">
                    <mxGeometry x="600" y="525" width="60" height="20" as="geometry"/>
                </mxCell>
                <mxCell id="89" value="" style="endArrow=block;dashed=1;endFill=0;endSize=12;html=1;exitX=1;exitY=0.5;exitDx=0;exitDy=0;entryX=1;entryY=0;entryDx=0;entryDy=0;" parent="1" source="4" target="7" edge="1">
                    <mxGeometry width="160" relative="1" as="geometry">
                        <mxPoint x="475" y="453" as="sourcePoint"/>
                        <mxPoint x="766.7199999999998" y="550.3499999999999" as="targetPoint"/>
                        <Array as="points">
                            <mxPoint x="630" y="500"/>
                        </Array>
                    </mxGeometry>
                </mxCell>
                <mxCell id="90" value="&lt;span style=&quot;color: rgb(240, 240, 240); font-family: Helvetica; font-size: 11px; font-style: normal; font-variant-ligatures: normal; font-variant-caps: normal; font-weight: 400; letter-spacing: normal; orphans: 2; text-align: center; text-indent: 0px; text-transform: none; widows: 2; word-spacing: 0px; -webkit-text-stroke-width: 0px; background-color: rgb(24, 20, 29); text-decoration-thickness: initial; text-decoration-style: initial; text-decoration-color: initial; float: none; display: inline !important;&quot;&gt;INCLUDE&lt;/span&gt;" style="text;whiteSpace=wrap;html=1;rotation=15;" parent="1" vertex="1">
                    <mxGeometry x="600" y="470" width="60" height="20" as="geometry"/>
                </mxCell>
                <mxCell id="91" value="Rechercher les événements" style="ellipse;whiteSpace=wrap;html=1;" vertex="1" parent="1">
                    <mxGeometry x="360" y="1350" width="140" height="40" as="geometry"/>
                </mxCell>
                <mxCell id="92" value="" style="endArrow=block;dashed=1;endFill=0;endSize=12;html=1;exitX=1;exitY=0.5;exitDx=0;exitDy=0;entryX=0.744;entryY=1.025;entryDx=0;entryDy=0;entryPerimeter=0;" edge="1" parent="1" source="91">
                    <mxGeometry width="160" relative="1" as="geometry">
                        <mxPoint x="520.000000000002" y="1300.75" as="sourcePoint"/>
                        <mxPoint x="814.1599999999999" y="660" as="targetPoint"/>
                        <Array as="points">
                            <mxPoint x="680" y="1109.75"/>
                            <mxPoint x="750" y="954.75"/>
                            <mxPoint x="800" y="806.75"/>
                        </Array>
                    </mxGeometry>
                </mxCell>
                <mxCell id="93" value="" style="endArrow=none;html=1;entryX=0;entryY=0.5;entryDx=0;entryDy=0;" edge="1" parent="1" target="91">
                    <mxGeometry width="50" height="50" relative="1" as="geometry">
                        <mxPoint x="100" y="1220" as="sourcePoint"/>
                        <mxPoint x="369.99999999999613" y="1145" as="targetPoint"/>
                    </mxGeometry>
                </mxCell>
            </root>
        </mxGraphModel>
    </diagram>
</mxfile>